<?xml version="1.0" encoding="utf-8"?>
<!-- Generator: Adobe Illustrator 15.0.0, SVG Export Plug-In . SVG Version: 6.00 Build 0)  -->
<!DOCTYPE svg PUBLIC "-//W3C//DTD SVG 1.1//EN" "http://www.w3.org/Graphics/SVG/1.1/DTD/svg11.dtd">
<svg version="1.1" id="Layer_2" xmlns="http://www.w3.org/2000/svg" xmlns:xlink="http://www.w3.org/1999/xlink" x="0px" y="0px"
	 width="550px" height="400px" viewBox="0 0 550 400" enable-background="new 0 0 550 400" xml:space="preserve">
<g id="hand">
	<g id="Layer_3_1_">
		<path fill="#FFFFFF" d="M328.908,190.743l0.105-8.648L328.908,190.743z"/>
		<path d="M72.183,151.224c0-5.483,3.844-10.217,9.213-11.341c58.299-12.201,104.173-36.632,136.348-72.612
			c2.776-3.104,7.005-4.48,11.076-3.604c8.51,1.832,34.407,7.407,39.172,27.411c2.451,10.288-1.231,21.228-11.481,33.528
			l144.126,0.739c0.109,0,0.217,0.002,0.326,0.006c10.961,0.364,32.004,7.95,33.19,34.055c0.409,9.045-2.339,16.995-7.95,22.996
			c-9.627,10.291-24.29,11.405-28.6,11.5c-0.095,0.002-0.188,0.003-0.283,0.004c-0.006,0-0.013,0-0.019,0h-73.989
			c-0.021,1.573-0.031,3.289-0.031,5.145c0,12.088-4.679,21.971-13.36,28.594v0.141c0,0.279-0.011,0.561-0.03,0.84
			c-0.215,2.943-0.322,7.482-0.322,13.492c0,12.301-4.844,22.314-13.82,28.938c-0.16,2.914-0.24,7.004-0.24,12.193
			c0,15.406-7.602,27.229-21.402,33.289c-3.968,1.752-8.365,2.969-13.047,3.607c-2.395,0.326-4.42,0.475-6.197,0.457l-17.947-0.088
			c-0.177,0-0.354-0.006-0.531-0.014c-43.504-2.211-77.492-6.59-101.021-13.014c-23.024-6.275-41.593-11.953-55.184-16.875
			c-4.576-1.658-7.629-5.996-7.642-10.863l-0.354-128.492C72.183,151.246,72.183,151.235,72.183,151.224z M230.246,87.886
			c-33.39,35.017-78.688,59.41-134.863,72.627l0.305,110.965c12.095,4.076,27.443,8.654,45.773,13.65
			c21.88,5.975,54.122,10.082,95.833,12.213l17.737,0.086c0.345,0.004,1.201-0.016,2.902-0.246c2.527-0.344,4.828-0.969,6.833-1.854
			c5.451-2.395,7.566-5.779,7.566-12.08c0-1.377,0.005-2.684,0.016-3.918c-0.761,0.068-1.482,0.111-2.171,0.135
			c-2.521,0.084-4.881-0.645-6.828-1.949l-11.74-0.025c-1.873,1.244-4.126,1.957-6.544,1.928l-8.648-0.105
			c-6.351-0.078-11.446-5.25-11.446-11.584c0-0.047,0-0.096,0.001-0.145c0.077-6.398,5.328-11.521,11.727-11.443h0.1
			c1.757-1.107,3.832-1.758,6.062-1.779l5.489-0.053c0.045,0,0.091,0,0.137,0l29.956,0.053c0.13-0.055,0.257-0.109,0.384-0.164
			c5.452-2.395,7.566-5.777,7.566-12.08c0-2.064,0.013-3.965,0.037-5.711h-2.881c-0.032,0-0.064,0-0.098,0h-26.418
			c-6.399,0-11.587-5.188-11.587-11.586c0-6.4,5.188-11.588,11.587-11.588h26.249c0.466-0.021,1.232-0.084,2.406-0.245
			c2.547-0.347,4.848-0.972,6.853-1.856c5.452-2.395,7.567-5.778,7.567-12.081c0-2.063,0.012-3.963,0.036-5.709h-29.397
			c-6.399,0-11.587-5.188-11.587-11.587s5.188-11.587,11.587-11.587h33.897c1.005-0.284,2.063-0.436,3.157-0.436
			c0.043,0,0.087,0,0.131,0.001l89.283,0.998c3.476-0.108,9.376-1.286,12.063-4.16c0.819-0.876,1.894-2.468,1.725-6.111
			c-0.446-9.816-6.861-11.705-10.739-11.94l-172.548-0.885c-4.899-0.025-9.253-3.129-10.875-7.752
			c-1.621-4.623-0.16-9.767,3.651-12.846c26.728-21.603,25.042-30.231,24.955-30.586C245.01,94.611,241.225,91.024,230.246,87.886z"
			/>
	</g>
</g>
</svg>
