  0
SECTION
  2
HEADER
  9
$ACADVER
  1
AC1014
  9
$ACADMAINTVER
 70
     9
  9
$DWGCODEPAGE
  3
ANSI_932
  9
$INSBASE
 10
0.0
 20
0.0
 30
0.0
  9
$EXTMIN
 10
1.000000000000000E+20
 20
1.000000000000000E+20
 30
1.000000000000000E+20
  9
$EXTMAX
 10
-1.000000000000000E+20
 20
-1.000000000000000E+20
 30
-1.000000000000000E+20
  9
$LIMMIN
 10
0.0
 20
0.0
  9
$LIMMAX
 10
12.0
 20
9.0
  9
$ORTHOMODE
 70
     0
  9
$REGENMODE
 70
     1
  9
$FILLMODE
 70
     1
  9
$QTEXTMODE
 70
     0
  9
$MIRRTEXT
 70
     1
  9
$DRAGMODE
 70
     2
  9
$LTSCALE
 40
1.0
  9
$OSMODE
 70
    37
  9
$ATTMODE
 70
     1
  9
$TEXTSIZE
 40
0.2
  9
$TRACEWID
 40
0.05
  9
$TEXTSTYLE
  7
STANDARD
  9
$CLAYER
  8
0
  9
$CELTYPE
  6
BYLAYER
  9
$CECOLOR
 62
   256
  9
$CELTSCALE
 40
1.0
  9
$DELOBJ
 70
     1
  9
$DISPSILH
 70
     0
  9
$DIMSCALE
 40
1.0
  9
$DIMASZ
 40
0.18
  9
$DIMEXO
 40
0.0625
  9
$DIMDLI
 40
0.38
  9
$DIMRND
 40
0.0
  9
$DIMDLE
 40
0.0
  9
$DIMEXE
 40
0.18
  9
$DIMTP
 40
0.0
  9
$DIMTM
 40
0.0
  9
$DIMTXT
 40
0.18
  9
$DIMCEN
 40
0.09
  9
$DIMTSZ
 40
0.0
  9
$DIMTOL
 70
     0
  9
$DIMLIM
 70
     0
  9
$DIMTIH
 70
     1
  9
$DIMTOH
 70
     1
  9
$DIMSE1
 70
     0
  9
$DIMSE2
 70
     0
  9
$DIMTAD
 70
     0
  9
$DIMZIN
 70
     0
  9
$DIMBLK
  1

  9
$DIMASO
 70
     1
  9
$DIMSHO
 70
     1
  9
$DIMPOST
  1

  9
$DIMAPOST
  1

  9
$DIMALT
 70
     0
  9
$DIMALTD
 70
     2
  9
$DIMALTF
 40
25.4
  9
$DIMLFAC
 40
1.0
  9
$DIMTOFL
 70
     0
  9
$DIMTVP
 40
0.0
  9
$DIMTIX
 70
     0
  9
$DIMSOXD
 70
     0
  9
$DIMSAH
 70
     0
  9
$DIMBLK1
  1

  9
$DIMBLK2
  1

  9
$DIMSTYLE
  2
STANDARD
  9
$DIMCLRD
 70
     0
  9
$DIMCLRE
 70
     0
  9
$DIMCLRT
 70
     0
  9
$DIMTFAC
 40
1.0
  9
$DIMGAP
 40
0.09
  9
$DIMJUST
 70
     0
  9
$DIMSD1
 70
     0
  9
$DIMSD2
 70
     0
  9
$DIMTOLJ
 70
     1
  9
$DIMTZIN
 70
     0
  9
$DIMALTZ
 70
     0
  9
$DIMALTTZ
 70
     0
  9
$DIMFIT
 70
     3
  9
$DIMUPT
 70
     0
  9
$DIMUNIT
 70
     2
  9
$DIMDEC
 70
     4
  9
$DIMTDEC
 70
     4
  9
$DIMALTU
 70
     2
  9
$DIMALTTD
 70
     2
  9
$DIMTXSTY
  7
STANDARD
  9
$DIMAUNIT
 70
     0
  9
$LUNITS
 70
     2
  9
$LUPREC
 70
     4
  9
$SKETCHINC
 40
0.1
  9
$FILLETRAD
 40
0.5
  9
$AUNITS
 70
     0
  9
$AUPREC
 70
     0
  9
$MENU
  1
.
  9
$ELEVATION
 40
0.0
  9
$PELEVATION
 40
0.0
  9
$THICKNESS
 40
0.0
  9
$LIMCHECK
 70
     0
  9
$CHAMFERA
 40
0.5
  9
$CHAMFERB
 40
0.5
  9
$CHAMFERC
 40
1.0
  9
$CHAMFERD
 40
0.0
  9
$SKPOLY
 70
     0
  9
$TDCREATE
 40
2457107.114907407
  9
$TDUPDATE
 40
2457107.114907419
  9
$TDINDWG
 40
0.0000000116
  9
$TDUSRTIMER
 40
0.0000000116
  9
$USRTIMER
 70
     1
  9
$ANGBASE
 50
0.0
  9
$ANGDIR
 70
     0
  9
$PDMODE
 70
     0
  9
$PDSIZE
 40
0.0
  9
$PLINEWID
 40
0.0
  9
$COORDS
 70
     1
  9
$SPLFRAME
 70
     0
  9
$SPLINETYPE
 70
     6
  9
$SPLINESEGS
 70
     8
  9
$ATTDIA
 70
     0
  9
$ATTREQ
 70
     1
  9
$HANDLING
 70
     1
  9
$HANDSEED
  5
76
  9
$SURFTAB1
 70
     6
  9
$SURFTAB2
 70
     6
  9
$SURFTYPE
 70
     6
  9
$SURFU
 70
     6
  9
$SURFV
 70
     6
  9
$UCSNAME
  2

  9
$UCSORG
 10
0.0
 20
0.0
 30
0.0
  9
$UCSXDIR
 10
1.0
 20
0.0
 30
0.0
  9
$UCSYDIR
 10
0.0
 20
1.0
 30
0.0
  9
$PUCSNAME
  2

  9
$PUCSORG
 10
0.0
 20
0.0
 30
0.0
  9
$PUCSXDIR
 10
1.0
 20
0.0
 30
0.0
  9
$PUCSYDIR
 10
0.0
 20
1.0
 30
0.0
  9
$USERI1
 70
     0
  9
$USERI2
 70
     0
  9
$USERI3
 70
     0
  9
$USERI4
 70
     0
  9
$USERI5
 70
     0
  9
$USERR1
 40
0.0
  9
$USERR2
 40
0.0
  9
$USERR3
 40
0.0
  9
$USERR4
 40
0.0
  9
$USERR5
 40
0.0
  9
$WORLDVIEW
 70
     1
  9
$SHADEDGE
 70
     3
  9
$SHADEDIF
 70
    70
  9
$TILEMODE
 70
     1
  9
$MAXACTVP
 70
    64
  9
$PINSBASE
 10
0.0
 20
0.0
 30
0.0
  9
$PLIMCHECK
 70
     0
  9
$PEXTMIN
 10
1.000000000000000E+20
 20
1.000000000000000E+20
 30
1.000000000000000E+20
  9
$PEXTMAX
 10
-1.000000000000000E+20
 20
-1.000000000000000E+20
 30
-1.000000000000000E+20
  9
$PLIMMIN
 10
0.0
 20
0.0
  9
$PLIMMAX
 10
12.0
 20
9.0
  9
$UNITMODE
 70
     0
  9
$VISRETAIN
 70
     1
  9
$PLINEGEN
 70
     0
  9
$PSLTSCALE
 70
     1
  9
$TREEDEPTH
 70
  3020
  9
$PICKSTYLE
 70
     1
  9
$CMLSTYLE
  2
STANDARD
  9
$CMLJUST
 70
     0
  9
$CMLSCALE
 40
1.0
  9
$PROXYGRAPHICS
 70
     1
  9
$MEASUREMENT
 70
     0
  0
ENDSEC
  0
SECTION
  2
CLASSES
  0
CLASS
  1
ACDBDICTIONARYWDFLT
  2
AcDbDictionaryWithDefault
  3
ObjectDBX Classes
 90
        0
280
     0
281
     0
  0
CLASS
  1
VISUALSTYLE
  2
AcDbVisualStyle
  3
ObjectDBX Classes
 90
     4095
280
     0
281
     0
  0
CLASS
  1
XRECORD
  2
AcDbXrecord
  3
AutoCAD 2000
 90
        0
280
     0
281
     0
  0
CLASS
  1
LWPOLYLINE
  2
AcDbPolyline
  3
AutoCAD 2000
 90
        0
280
     0
281
     1
  0
CLASS
  1
HATCH
  2
AcDbHatch
  3
AutoCAD 2000
 90
        0
280
     0
281
     1
  0
CLASS
  1
ACDBPLACEHOLDER
  2
AcDbPlaceHolder
  3
ObjectDBX Classes
 90
        0
280
     0
281
     0
  0
CLASS
  1
LAYOUT
  2
AcDbLayout
  3
ObjectDBX Classes
 90
        0
280
     0
281
     0
  0
ENDSEC
  0
SECTION
  2
TABLES
  0
TABLE
  2
VPORT
  5
8
330
0
100
AcDbSymbolTable
 70
     1
  0
VPORT
  5
29
330
8
100
AcDbSymbolTableRecord
100
AcDbViewportTableRecord
  2
*ACTIVE
 70
     0
 10
0.0
 20
0.0
 11
1.0
 21
1.0
 12
0.0
 22
0.0
 13
0.0
 23
0.0
 14
0.5
 24
0.5
 15
0.5
 25
0.5
 16
0.0
 26
0.0
 36
1.0
 17
392.0
 27
147.5
 37
0.0
 40
295.0
 41
2.657627118644068
 42
50.0
 43
0.0
 44
0.0
 50
0.0
 51
0.0
 71
     0
 72
   100
 73
     1
 74
     3
 75
     0
 76
     0
 77
     0
 78
     0
  0
ENDTAB
  0
TABLE
  2
LTYPE
  5
5
330
0
100
AcDbSymbolTable
 70
     1
  0
LTYPE
  5
14
330
5
100
AcDbSymbolTableRecord
100
AcDbLinetypeTableRecord
  2
BYBLOCK
 70
     0
  3

 72
    65
 73
     0
 40
0.0
  0
LTYPE
  5
15
330
5
100
AcDbSymbolTableRecord
100
AcDbLinetypeTableRecord
  2
BYLAYER
 70
     0
  3

 72
    65
 73
     0
 40
0.0
  0
LTYPE
  5
16
330
5
100
AcDbSymbolTableRecord
100
AcDbLinetypeTableRecord
  2
CONTINUOUS
 70
     0
  3
Solid line
 72
    65
 73
     0
 40
0.0
  0
ENDTAB
  0
TABLE
  2
LAYER
  5
2
330
0
100
AcDbSymbolTable
 70
     2
  0
LAYER
  5
10
330
2
100
AcDbSymbolTableRecord
100
AcDbLayerTableRecord
  2
0
 70
     0
 62
     7
  6
CONTINUOUS
  0
LAYER
  5
3B
330
2
100
AcDbSymbolTableRecord
100
AcDbLayerTableRecord
  2
LAYER_2
 70
     0
 62
     7
  6
CONTINUOUS
  0
ENDTAB
  0
TABLE
  2
STYLE
  5
3
330
0
100
AcDbSymbolTable
 70
     1
  0
STYLE
  5
11
330
3
100
AcDbSymbolTableRecord
100
AcDbTextStyleTableRecord
  2
STANDARD
 70
     0
 40
0.0
 41
1.0
 50
0.0
 71
     0
 42
0.2
  3
txt
  4

  0
ENDTAB
  0
TABLE
  2
VIEW
  5
6
330
0
100
AcDbSymbolTable
 70
     0
  0
ENDTAB
  0
TABLE
  2
UCS
  5
7
330
0
100
AcDbSymbolTable
 70
     0
  0
ENDTAB
  0
TABLE
  2
APPID
  5
9
330
0
100
AcDbSymbolTable
 70
     1
  0
APPID
  5
12
330
9
100
AcDbSymbolTableRecord
100
AcDbRegAppTableRecord
  2
ACAD
 70
     0
  0
ENDTAB
  0
TABLE
  2
DIMSTYLE
  5
A
330
0
100
AcDbSymbolTable
 70
     1
  0
DIMSTYLE
105
27
330
A
100
AcDbSymbolTableRecord
100
AcDbDimStyleTableRecord
  2
STANDARD
 70
     0
  3

  4

  5

  6

  7

 40
1.0
 41
0.18
 42
0.0625
 43
0.38
 44
0.18
 45
0.0
 46
0.0
 47
0.0
 48
0.0
140
0.18
141
0.09
142
0.0
143
25.4
144
1.0
145
0.0
146
1.0
147
0.09
 71
     0
 72
     0
 73
     1
 74
     1
 75
     0
 76
     0
 77
     0
 78
     0
170
     0
171
     2
172
     0
173
     0
174
     0
175
     0
176
     0
177
     0
178
     0
270
     2
271
     4
272
     4
273
     2
274
     2
340
11
275
     0
280
     0
281
     0
282
     0
283
     1
284
     0
285
     0
286
     0
287
     3
288
     0
  0
ENDTAB
  0
TABLE
  2
BLOCK_RECORD
  5
1
330
0
100
AcDbSymbolTable
 70
     6
  0
BLOCK_RECORD
  5
1F
330
1
100
AcDbSymbolTableRecord
100
AcDbBlockTableRecord
  2
*MODEL_SPACE
  0
BLOCK_RECORD
  5
1B
330
1
100
AcDbSymbolTableRecord
100
AcDbBlockTableRecord
  2
*PAPER_SPACE
  0
BLOCK_RECORD
  5
3C
330
1
100
AcDbSymbolTableRecord
100
AcDbBlockTableRecord
  2
BLOCK_2
  0
BLOCK_RECORD
  5
40
330
1
100
AcDbSymbolTableRecord
100
AcDbBlockTableRecord
  2
BLOCK_3
  0
BLOCK_RECORD
  5
44
330
1
100
AcDbSymbolTableRecord
100
AcDbBlockTableRecord
  2
BLOCK_4
  0
BLOCK_RECORD
  5
49
330
1
100
AcDbSymbolTableRecord
100
AcDbBlockTableRecord
  2
BLOCK_5
  0
BLOCK_RECORD
  5
4E
330
1
100
AcDbSymbolTableRecord
100
AcDbBlockTableRecord
  2
BLOCK_6
  0
ENDTAB
  0
ENDSEC
  0
SECTION
  2
BLOCKS
  0
BLOCK
  5
20
330
1F
100
AcDbEntity
  8
0
100
AcDbBlockBegin
  2
*MODEL_SPACE
 70
     0
 71
     0
 10
0.0
 20
0.0
 30
0.0
  3
*MODEL_SPACE
  1

  0
ENDBLK
  5
21
330
1F
100
AcDbEntity
  8
0
100
AcDbBlockEnd
  0
BLOCK
  5
1C
330
1B
100
AcDbEntity
 67
     1
  8
0
100
AcDbBlockBegin
  2
*PAPER_SPACE
 70
     0
 71
     0
 10
0.0
 20
0.0
 30
0.0
  3
*PAPER_SPACE
  1

  0
ENDBLK
  5
1D
330
1B
100
AcDbEntity
 67
     1
  8
0
100
AcDbBlockEnd
  0
BLOCK
  5
3E
330
3C
100
AcDbEntity
  8
0
100
AcDbBlockBegin
  2
BLOCK_2
 70
     0
 71
     0
 10
0.0
 20
0.0
 30
0.0
  3
BLOCK_2
  1

  0
INSERT
  5
41
330
3C
100
AcDbEntity
  8
LAYER_2
100
AcDbBlockReference
  2
BLOCK_3
 10
0.0
 20
0.0
 30
0.0
  0
ENDBLK
  5
3F
330
3C
100
AcDbEntity
  8
0
100
AcDbBlockEnd
  0
BLOCK
  5
42
330
40
100
AcDbEntity
  8
0
100
AcDbBlockBegin
  2
BLOCK_3
 70
     0
 71
     0
 10
0.0
 20
0.0
 30
0.0
  3
BLOCK_3
  1

  0
INSERT
  5
45
330
40
100
AcDbEntity
  8
LAYER_2
100
AcDbBlockReference
  2
BLOCK_4
 10
0.0
 20
0.0
 30
0.0
  0
INSERT
  5
4A
330
40
100
AcDbEntity
  8
LAYER_2
100
AcDbBlockReference
  2
BLOCK_5
 10
0.0
 20
0.0
 30
0.0
  0
INSERT
  5
4F
330
40
100
AcDbEntity
  8
LAYER_2
100
AcDbBlockReference
  2
BLOCK_6
 10
0.0
 20
0.0
 30
0.0
  0
ENDBLK
  5
43
330
40
100
AcDbEntity
  8
0
100
AcDbBlockEnd
  0
BLOCK
  5
46
330
44
100
AcDbEntity
  8
0
100
AcDbBlockBegin
  2
BLOCK_4
 70
     0
 71
     0
 10
0.0
 20
0.0
 30
0.0
  3
BLOCK_4
  1

  0
SPLINE
  5
48
330
44
100
AcDbEntity
  8
LAYER_2
 62
     7
100
AcDbSpline
210
0.0
220
0.0
230
1.0
 70
    11
 71
     3
 72
    95
 73
    91
 74
     0
 42
0.0000000001
 43
0.0000000001
 40
0.0
 40
0.0
 40
0.0
 40
0.0
 40
1.0
 40
1.0
 40
1.0
 40
2.0
 40
2.0
 40
2.0
 40
3.0
 40
3.0
 40
3.0
 40
4.0
 40
4.0
 40
4.0
 40
5.0
 40
5.0
 40
5.0
 40
6.0
 40
6.0
 40
6.0
 40
7.0
 40
7.0
 40
7.0
 40
8.0
 40
8.0
 40
8.0
 40
9.0
 40
9.0
 40
9.0
 40
10.0
 40
10.0
 40
10.0
 40
11.0
 40
11.0
 40
11.0
 40
12.0
 40
12.0
 40
12.0
 40
13.0
 40
13.0
 40
13.0
 40
14.0
 40
14.0
 40
14.0
 40
15.0
 40
15.0
 40
15.0
 40
16.0
 40
16.0
 40
16.0
 40
17.0
 40
17.0
 40
17.0
 40
18.0
 40
18.0
 40
18.0
 40
19.0
 40
19.0
 40
19.0
 40
20.0
 40
20.0
 40
20.0
 40
21.0
 40
21.0
 40
21.0
 40
22.0
 40
22.0
 40
22.0
 40
23.0
 40
23.0
 40
23.0
 40
24.0
 40
24.0
 40
24.0
 40
25.0
 40
25.0
 40
25.0
 40
26.0
 40
26.0
 40
26.0
 40
27.0
 40
27.0
 40
27.0
 40
28.0
 40
28.0
 40
28.0
 40
29.0
 40
29.0
 40
29.0
 40
30.0
 40
30.0
 40
30.0
 40
30.0
 10
328.0576171875
 20
161.94140625
 30
0.0
 10
328.0576171875
 20
163.8759765625
 30
0.0
 10
329.41357421875
 20
165.5458984375
 30
0.0
 10
331.3076171875
 20
165.9423828125
 30
0.0
 10
351.8740234375
 20
170.24658203125
 30
0.0
 10
368.0576171875
 20
178.865234375
 30
0.0
 10
379.408203125
 20
191.55859375
 30
0.0
 10
380.3876953125
 20
192.65380859375
 30
0.0
 10
381.87939453125
 20
193.13916015625
 30
0.0
 10
383.3154296875
 20
192.82958984375
 30
0.0
 10
386.3173828125
 20
192.18359375
 30
0.0
 10
395.453125
 20
190.216796875
 30
0.0
 10
397.134765625
 20
183.15966796875
 30
0.0
 10
397.9990234375
 20
179.5302734375
 30
0.0
 10
396.7001953125
 20
175.6708984375
 30
0.0
 10
393.083984375
 20
171.33203125
 30
0.0
 10
393.083984375
 20
171.33203125
 30
0.0
 10
443.9287109375
 20
171.0712890625
 30
0.0
 10
443.9287109375
 20
171.0712890625
 30
0.0
 10
443.9677734375
 20
171.0712890625
 30
0.0
 10
444.005859375
 20
171.0703125
 30
0.0
 10
444.0439453125
 20
171.0693359375
 30
0.0
 10
447.9111328125
 20
170.9404296875
 30
0.0
 10
455.333984375
 20
168.2646484375
 30
0.0
 10
455.7529296875
 20
159.05517578125
 30
0.0
 10
455.8974609375
 20
155.86474609375
 30
0.0
 10
454.927734375
 20
153.06005859375
 30
0.0
 10
452.9482421875
 20
150.94287109375
 30
0.0
 10
449.5517578125
 20
147.31298828125
 30
0.0
 10
444.37890625
 20
146.919921875
 30
0.0
 10
442.859375
 20
146.8857421875
 30
0.0
 10
442.8251953125
 20
146.884765625
 30
0.0
 10
442.7919921875
 20
146.884765625
 30
0.0
 10
442.7587890625
 20
146.884765625
 30
0.0
 10
442.7568359375
 20
146.884765625
 30
0.0
 10
442.7548828125
 20
146.884765625
 30
0.0
 10
442.751953125
 20
146.884765625
 30
0.0
 10
442.751953125
 20
146.884765625
 30
0.0
 10
416.650390625
 20
146.884765625
 30
0.0
 10
416.650390625
 20
146.884765625
 30
0.0
 10
416.6435546875
 20
146.330078125
 30
0.0
 10
416.6396484375
 20
145.724609375
 30
0.0
 10
416.6396484375
 20
145.0703125
 30
0.0
 10
416.6396484375
 20
140.8046875
 30
0.0
 10
414.9892578125
 20
137.318359375
 30
0.0
 10
411.9267578125
 20
134.982421875
 30
0.0
 10
411.9267578125
 20
134.982421875
 30
0.0
 10
411.9267578125
 20
134.931640625
 30
0.0
 10
411.9267578125
 20
134.931640625
 30
0.0
 10
411.9267578125
 20
134.833984375
 30
0.0
 10
411.9228515625
 20
134.734375
 30
0.0
 10
411.916015625
 20
134.63671875
 30
0.0
 10
411.83984375
 20
133.59765625
 30
0.0
 10
411.8017578125
 20
131.99609375
 30
0.0
 10
411.8017578125
 20
129.876953125
 30
0.0
 10
411.8017578125
 20
125.537109375
 30
0.0
 10
410.0927734375
 20
122.00390625
 30
0.0
 10
406.9267578125
 20
119.66796875
 30
0.0
 10
406.8701171875
 20
118.640625
 30
0.0
 10
406.841796875
 20
117.197265625
 30
0.0
 10
406.841796875
 20
115.3671875
 30
0.0
 10
406.841796875
 20
109.931640625
 30
0.0
 10
404.16015625
 20
105.76171875
 30
0.0
 10
399.291015625
 20
103.623046875
 30
0.0
 10
397.8916015625
 20
103.00390625
 30
0.0
 10
396.3408203125
 20
102.576171875
 30
0.0
 10
394.6884765625
 20
102.349609375
 30
0.0
 10
393.84375
 20
102.234375
 30
0.0
 10
393.12890625
 20
102.18359375
 30
0.0
 10
392.501953125
 20
102.189453125
 30
0.0
 10
392.501953125
 20
102.189453125
 30
0.0
 10
386.17138671875
 20
102.220703125
 30
0.0
 10
386.17138671875
 20
102.220703125
 30
0.0
 10
386.10888671875
 20
102.220703125
 30
0.0
 10
386.04638671875
 20
102.22265625
 30
0.0
 10
385.98388671875
 20
102.224609375
 30
0.0
 10
370.63671875
 20
103.00390625
 30
0.0
 10
358.64599609375
 20
104.548828125
 30
0.0
 10
350.345703125
 20
106.81640625
 30
0.0
 10
342.22314453125
 20
109.029296875
 30
0.0
 10
335.67236328125
 20
111.033203125
 30
0.0
 10
330.8779296875
 20
112.76953125
 30
0.0
 10
329.263671875
 20
113.353515625
 30
0.0
 10
328.1865234375
 20
114.884765625
 30
0.0
 10
328.18212890625
 20
116.6015625
 30
0.0
 10
328.18212890625
 20
116.6015625
 30
0.0
 10
328.0576171875
 20
161.93017578125
 30
0.0
 10
328.0576171875
 20
161.93017578125
 30
0.0
 10
328.0576171875
 20
161.93408203125
 30
0.0
 10
328.0576171875
 20
161.93798828125
 30
0.0
 10
328.0576171875
 20
161.94140625
 30
0.0
  0
ENDBLK
  5
47
330
44
100
AcDbEntity
  8
0
100
AcDbBlockEnd
  0
BLOCK
  5
4B
330
49
100
AcDbEntity
  8
0
100
AcDbBlockBegin
  2
BLOCK_5
 70
     0
 71
     0
 10
0.0
 20
0.0
 30
0.0
  3
BLOCK_5
  1

  0
SPLINE
  5
4D
330
49
100
AcDbEntity
  8
LAYER_2
 62
     7
100
AcDbSpline
210
0.0
220
0.0
230
1.0
 70
    11
 71
     3
 72
   155
 73
   151
 74
     0
 42
0.0000000001
 43
0.0000000001
 40
0.0
 40
0.0
 40
0.0
 40
0.0
 40
1.0
 40
1.0
 40
1.0
 40
2.0
 40
2.0
 40
2.0
 40
3.0
 40
3.0
 40
3.0
 40
4.0
 40
4.0
 40
4.0
 40
5.0
 40
5.0
 40
5.0
 40
6.0
 40
6.0
 40
6.0
 40
7.0
 40
7.0
 40
7.0
 40
8.0
 40
8.0
 40
8.0
 40
9.0
 40
9.0
 40
9.0
 40
10.0
 40
10.0
 40
10.0
 40
11.0
 40
11.0
 40
11.0
 40
12.0
 40
12.0
 40
12.0
 40
13.0
 40
13.0
 40
13.0
 40
14.0
 40
14.0
 40
14.0
 40
15.0
 40
15.0
 40
15.0
 40
16.0
 40
16.0
 40
16.0
 40
17.0
 40
17.0
 40
17.0
 40
18.0
 40
18.0
 40
18.0
 40
19.0
 40
19.0
 40
19.0
 40
20.0
 40
20.0
 40
20.0
 40
21.0
 40
21.0
 40
21.0
 40
22.0
 40
22.0
 40
22.0
 40
23.0
 40
23.0
 40
23.0
 40
24.0
 40
24.0
 40
24.0
 40
25.0
 40
25.0
 40
25.0
 40
26.0
 40
26.0
 40
26.0
 40
27.0
 40
27.0
 40
27.0
 40
28.0
 40
28.0
 40
28.0
 40
29.0
 40
29.0
 40
29.0
 40
30.0
 40
30.0
 40
30.0
 40
31.0
 40
31.0
 40
31.0
 40
32.0
 40
32.0
 40
32.0
 40
33.0
 40
33.0
 40
33.0
 40
34.0
 40
34.0
 40
34.0
 40
35.0
 40
35.0
 40
35.0
 40
36.0
 40
36.0
 40
36.0
 40
37.0
 40
37.0
 40
37.0
 40
38.0
 40
38.0
 40
38.0
 40
39.0
 40
39.0
 40
39.0
 40
40.0
 40
40.0
 40
40.0
 40
41.0
 40
41.0
 40
41.0
 40
42.0
 40
42.0
 40
42.0
 40
43.0
 40
43.0
 40
43.0
 40
44.0
 40
44.0
 40
44.0
 40
45.0
 40
45.0
 40
45.0
 40
46.0
 40
46.0
 40
46.0
 40
47.0
 40
47.0
 40
47.0
 40
48.0
 40
48.0
 40
48.0
 40
49.0
 40
49.0
 40
49.0
 40
50.0
 40
50.0
 40
50.0
 40
50.0
 10
383.81884765625
 20
184.28564453125
 30
0.0
 10
372.03955078125
 20
171.9326171875
 30
0.0
 10
356.0595703125
 20
163.3271484375
 30
0.0
 10
336.2421875
 20
158.66455078125
 30
0.0
 10
336.2421875
 20
158.66455078125
 30
0.0
 10
336.349609375
 20
119.517578125
 30
0.0
 10
336.349609375
 20
119.517578125
 30
0.0
 10
340.6162109375
 20
118.080078125
 30
0.0
 10
346.03076171875
 20
116.46484375
 30
0.0
 10
352.49755859375
 20
114.703125
 30
0.0
 10
360.21630859375
 20
112.595703125
 30
0.0
 10
371.59033203125
 20
111.146484375
 30
0.0
 10
386.30517578125
 20
110.39453125
 30
0.0
 10
386.30517578125
 20
110.39453125
 30
0.0
 10
392.5625
 20
110.36328125
 30
0.0
 10
392.5625
 20
110.36328125
 30
0.0
 10
392.6845703125
 20
110.36328125
 30
0.0
 10
392.986328125
 20
110.369140625
 30
0.0
 10
393.5859375
 20
110.451171875
 30
0.0
 10
394.4775390625
 20
110.572265625
 30
0.0
 10
395.2890625
 20
110.79296875
 30
0.0
 10
395.9970703125
 20
111.10546875
 30
0.0
 10
397.919921875
 20
111.94921875
 30
0.0
 10
398.666015625
 20
113.14453125
 30
0.0
 10
398.666015625
 20
115.3671875
 30
0.0
 10
398.666015625
 20
115.8515625
 30
0.0
 10
398.66796875
 20
116.3125
 30
0.0
 10
398.671875
 20
116.748046875
 30
0.0
 10
398.4033203125
 20
116.724609375
 30
0.0
 10
398.1484375
 20
116.708984375
 30
0.0
 10
397.90625
 20
116.701171875
 30
0.0
 10
397.0166015625
 20
116.671875
 30
0.0
 10
396.18359375
 20
116.927734375
 30
0.0
 10
395.4970703125
 20
117.388671875
 30
0.0
 10
395.4970703125
 20
117.388671875
 30
0.0
 10
391.35546875
 20
117.3984375
 30
0.0
 10
391.35546875
 20
117.3984375
 30
0.0
 10
390.69482421875
 20
116.958984375
 30
0.0
 10
389.89990234375
 20
116.70703125
 30
0.0
 10
389.046875
 20
116.716796875
 30
0.0
 10
389.046875
 20
116.716796875
 30
0.0
 10
385.99609375
 20
116.75390625
 30
0.0
 10
385.99609375
 20
116.75390625
 30
0.0
 10
383.755859375
 20
116.783203125
 30
0.0
 10
381.9580078125
 20
118.607421875
 30
0.0
 10
381.9580078125
 20
120.841796875
 30
0.0
 10
381.9580078125
 20
120.857421875
 30
0.0
 10
381.9580078125
 20
120.875
 30
0.0
 10
381.95849609375
 20
120.892578125
 30
0.0
 10
381.98583984375
 20
123.150390625
 30
0.0
 10
383.837890625
 20
124.95703125
 30
0.0
 10
386.09521484375
 20
124.9296875
 30
0.0
 10
386.09521484375
 20
124.9296875
 30
0.0
 10
386.13037109375
 20
124.9296875
 30
0.0
 10
386.13037109375
 20
124.9296875
 30
0.0
 10
386.75048828125
 20
125.3203125
 30
0.0
 10
387.482421875
 20
125.548828125
 30
0.0
 10
388.26904296875
 20
125.556640625
 30
0.0
 10
388.26904296875
 20
125.556640625
 30
0.0
 10
390.20556640625
 20
125.576171875
 30
0.0
 10
390.20556640625
 20
125.576171875
 30
0.0
 10
390.2216796875
 20
125.576171875
 30
0.0
 10
390.23779296875
 20
125.576171875
 30
0.0
 10
390.25390625
 20
125.576171875
 30
0.0
 10
390.25390625
 20
125.576171875
 30
0.0
 10
400.8212890625
 20
125.556640625
 30
0.0
 10
400.8212890625
 20
125.556640625
 30
0.0
 10
400.8671875
 20
125.576171875
 30
0.0
 10
400.912109375
 20
125.595703125
 30
0.0
 10
400.95703125
 20
125.615234375
 30
0.0
 10
402.8798828125
 20
126.458984375
 30
0.0
 10
403.6259765625
 20
127.65234375
 30
0.0
 10
403.6259765625
 20
129.876953125
 30
0.0
 10
403.6259765625
 20
130.60546875
 30
0.0
 10
403.630859375
 20
131.275390625
 30
0.0
 10
403.6396484375
 20
131.890625
 30
0.0
 10
403.6396484375
 20
131.890625
 30
0.0
 10
402.623046875
 20
131.890625
 30
0.0
 10
402.623046875
 20
131.890625
 30
0.0
 10
402.611328125
 20
131.890625
 30
0.0
 10
402.6005859375
 20
131.890625
 30
0.0
 10
402.5888671875
 20
131.890625
 30
0.0
 10
402.5888671875
 20
131.890625
 30
0.0
 10
393.2685546875
 20
131.890625
 30
0.0
 10
393.2685546875
 20
131.890625
 30
0.0
 10
391.01123046875
 20
131.890625
 30
0.0
 10
389.1806640625
 20
133.720703125
 30
0.0
 10
389.1806640625
 20
135.978515625
 30
0.0
 10
389.1806640625
 20
138.236328125
 30
0.0
 10
391.01123046875
 20
140.06640625
 30
0.0
 10
393.2685546875
 20
140.06640625
 30
0.0
 10
393.2685546875
 20
140.06640625
 30
0.0
 10
402.5283203125
 20
140.06640625
 30
0.0
 10
402.5283203125
 20
140.06640625
 30
0.0
 10
402.6923828125
 20
140.07421875
 30
0.0
 10
402.962890625
 20
140.095703125
 30
0.0
 10
403.376953125
 20
140.15234375
 30
0.0
 10
404.275390625
 20
140.275390625
 30
0.0
 10
405.087890625
 20
140.49609375
 30
0.0
 10
405.794921875
 20
140.80859375
 30
0.0
 10
407.7177734375
 20
141.65234375
 30
0.0
 10
408.46484375
 20
142.845703125
 30
0.0
 10
408.46484375
 20
145.0703125
 30
0.0
 10
408.46484375
 20
145.796875
 30
0.0
 10
408.46875
 20
146.4677734375
 30
0.0
 10
408.4775390625
 20
147.08349609375
 30
0.0
 10
408.4775390625
 20
147.08349609375
 30
0.0
 10
398.1064453125
 20
147.08349609375
 30
0.0
 10
398.1064453125
 20
147.08349609375
 30
0.0
 10
395.8486328125
 20
147.08349609375
 30
0.0
 10
394.0185546875
 20
148.9140625
 30
0.0
 10
394.0185546875
 20
151.17138671875
 30
0.0
 10
394.0185546875
 20
153.42919921875
 30
0.0
 10
395.8486328125
 20
155.25927734375
 30
0.0
 10
398.1064453125
 20
155.25927734375
 30
0.0
 10
398.1064453125
 20
155.25927734375
 30
0.0
 10
410.064453125
 20
155.25927734375
 30
0.0
 10
410.064453125
 20
155.25927734375
 30
0.0
 10
410.4189453125
 20
155.359375
 30
0.0
 10
410.79296875
 20
155.4130859375
 30
0.0
 10
411.1787109375
 20
155.4130859375
 30
0.0
 10
411.193359375
 20
155.4130859375
 30
0.0
 10
411.208984375
 20
155.41259765625
 30
0.0
 10
411.224609375
 20
155.41259765625
 30
0.0
 10
411.224609375
 20
155.41259765625
 30
0.0
 10
442.7216796875
 20
155.060546875
 30
0.0
 10
442.7216796875
 20
155.060546875
 30
0.0
 10
443.9482421875
 20
155.09912109375
 30
0.0
 10
446.029296875
 20
155.51416015625
 30
0.0
 10
446.9775390625
 20
156.5283203125
 30
0.0
 10
447.2666015625
 20
156.83740234375
 30
0.0
 10
447.6455078125
 20
157.3984375
 30
0.0
 10
447.5859375
 20
158.68408203125
 30
0.0
 10
447.4287109375
 20
162.14697265625
 30
0.0
 10
445.1650390625
 20
162.81298828125
 30
0.0
 10
443.796875
 20
162.896484375
 30
0.0
 10
443.796875
 20
162.896484375
 30
0.0
 10
382.92626953125
 20
163.20849609375
 30
0.0
 10
382.92626953125
 20
163.20849609375
 30
0.0
 10
381.19775390625
 20
163.21728515625
 30
0.0
 10
379.662109375
 20
164.3125
 30
0.0
 10
379.08984375
 20
165.943359375
 30
0.0
 10
378.51806640625
 20
167.57421875
 30
0.0
 10
379.033203125
 20
169.388671875
 30
0.0
 10
380.3779296875
 20
170.47509765625
 30
0.0
 10
389.80712890625
 20
178.09619140625
 30
0.0
 10
389.21240234375
 20
181.14013671875
 30
0.0
 10
389.181640625
 20
181.265625
 30
0.0
 10
389.02734375
 20
181.9130859375
 30
0.0
 10
387.69189453125
 20
183.1787109375
 30
0.0
 10
383.81884765625
 20
184.28564453125
 30
0.0
  0
ENDBLK
  5
4C
330
49
100
AcDbEntity
  8
0
100
AcDbBlockEnd
  0
BLOCK
  5
50
330
4E
100
AcDbEntity
  8
0
100
AcDbBlockBegin
  2
BLOCK_6
 70
     0
 71
     0
 10
0.0
 20
0.0
 30
0.0
  3
BLOCK_6
  1

  0
SPLINE
  5
52
330
4E
100
AcDbEntity
  8
LAYER_2
100
AcDbSpline
210
0.0
220
0.0
230
1.0
 70
    11
 71
     3
 72
    95
 73
    91
 74
     0
 42
0.0000000001
 43
0.0000000001
 40
0.0
 40
0.0
 40
0.0
 40
0.0
 40
1.0
 40
1.0
 40
1.0
 40
2.0
 40
2.0
 40
2.0
 40
3.0
 40
3.0
 40
3.0
 40
4.0
 40
4.0
 40
4.0
 40
5.0
 40
5.0
 40
5.0
 40
6.0
 40
6.0
 40
6.0
 40
7.0
 40
7.0
 40
7.0
 40
8.0
 40
8.0
 40
8.0
 40
9.0
 40
9.0
 40
9.0
 40
10.0
 40
10.0
 40
10.0
 40
11.0
 40
11.0
 40
11.0
 40
12.0
 40
12.0
 40
12.0
 40
13.0
 40
13.0
 40
13.0
 40
14.0
 40
14.0
 40
14.0
 40
15.0
 40
15.0
 40
15.0
 40
16.0
 40
16.0
 40
16.0
 40
17.0
 40
17.0
 40
17.0
 40
18.0
 40
18.0
 40
18.0
 40
19.0
 40
19.0
 40
19.0
 40
20.0
 40
20.0
 40
20.0
 40
21.0
 40
21.0
 40
21.0
 40
22.0
 40
22.0
 40
22.0
 40
23.0
 40
23.0
 40
23.0
 40
24.0
 40
24.0
 40
24.0
 40
25.0
 40
25.0
 40
25.0
 40
26.0
 40
26.0
 40
26.0
 40
27.0
 40
27.0
 40
27.0
 40
28.0
 40
28.0
 40
28.0
 40
29.0
 40
29.0
 40
29.0
 40
30.0
 40
30.0
 40
30.0
 40
30.0
 10
328.0576171875
 20
161.94189453125
 30
0.0
 10
328.0576171875
 20
163.87548828125
 30
0.0
 10
329.41357421875
 20
165.54638671875
 30
0.0
 10
331.3076171875
 20
165.94189453125
 30
0.0
 10
351.87451171875
 20
170.24658203125
 30
0.0
 10
368.0576171875
 20
178.86474609375
 30
0.0
 10
379.408203125
 20
191.55810546875
 30
0.0
 10
380.3876953125
 20
192.65380859375
 30
0.0
 10
381.87939453125
 20
193.13916015625
 30
0.0
 10
383.31591796875
 20
192.82958984375
 30
0.0
 10
386.31787109375
 20
192.18310546875
 30
0.0
 10
395.453125
 20
190.21728515625
 30
0.0
 10
397.134765625
 20
183.15966796875
 30
0.0
 10
397.9990234375
 20
179.53076171875
 30
0.0
 10
396.7001953125
 20
175.67138671875
 30
0.0
 10
393.083984375
 20
171.33154296875
 30
0.0
 10
393.083984375
 20
171.33154296875
 30
0.0
 10
443.9287109375
 20
171.07080078125
 30
0.0
 10
443.9287109375
 20
171.07080078125
 30
0.0
 10
443.9677734375
 20
171.07080078125
 30
0.0
 10
444.0048828125
 20
171.07080078125
 30
0.0
 10
444.0439453125
 20
171.06884765625
 30
0.0
 10
447.9111328125
 20
170.94091796875
 30
0.0
 10
455.333984375
 20
168.26513671875
 30
0.0
 10
455.7529296875
 20
159.05517578125
 30
0.0
 10
455.8974609375
 20
155.86474609375
 30
0.0
 10
454.927734375
 20
153.06005859375
 30
0.0
 10
452.9482421875
 20
150.94287109375
 30
0.0
 10
449.5517578125
 20
147.31298828125
 30
0.0
 10
444.37890625
 20
146.919921875
 30
0.0
 10
442.8583984375
 20
146.88671875
 30
0.0
 10
442.8251953125
 20
146.884765625
 30
0.0
 10
442.7919921875
 20
146.884765625
 30
0.0
 10
442.7587890625
 20
146.884765625
 30
0.0
 10
442.7568359375
 20
146.884765625
 30
0.0
 10
442.7548828125
 20
146.884765625
 30
0.0
 10
442.751953125
 20
146.884765625
 30
0.0
 10
442.751953125
 20
146.884765625
 30
0.0
 10
416.650390625
 20
146.884765625
 30
0.0
 10
416.650390625
 20
146.884765625
 30
0.0
 10
416.6435546875
 20
146.330078125
 30
0.0
 10
416.6396484375
 20
145.724609375
 30
0.0
 10
416.6396484375
 20
145.0703125
 30
0.0
 10
416.6396484375
 20
140.8046875
 30
0.0
 10
414.9892578125
 20
137.318359375
 30
0.0
 10
411.9267578125
 20
134.982421875
 30
0.0
 10
411.9267578125
 20
134.982421875
 30
0.0
 10
411.9267578125
 20
134.931640625
 30
0.0
 10
411.9267578125
 20
134.931640625
 30
0.0
 10
411.9267578125
 20
134.833984375
 30
0.0
 10
411.9228515625
 20
134.734375
 30
0.0
 10
411.916015625
 20
134.63671875
 30
0.0
 10
411.83984375
 20
133.59765625
 30
0.0
 10
411.8017578125
 20
131.99609375
 30
0.0
 10
411.8017578125
 20
129.876953125
 30
0.0
 10
411.8017578125
 20
125.537109375
 30
0.0
 10
410.0927734375
 20
122.00390625
 30
0.0
 10
406.9267578125
 20
119.66796875
 30
0.0
 10
406.8701171875
 20
118.640625
 30
0.0
 10
406.841796875
 20
117.197265625
 30
0.0
 10
406.841796875
 20
115.3671875
 30
0.0
 10
406.841796875
 20
109.931640625
 30
0.0
 10
404.16015625
 20
105.76171875
 30
0.0
 10
399.291015625
 20
103.623046875
 30
0.0
 10
397.8916015625
 20
103.00390625
 30
0.0
 10
396.33984375
 20
102.576171875
 30
0.0
 10
394.6884765625
 20
102.349609375
 30
0.0
 10
393.84375
 20
102.234375
 30
0.0
 10
393.12890625
 20
102.18359375
 30
0.0
 10
392.501953125
 20
102.189453125
 30
0.0
 10
392.501953125
 20
102.189453125
 30
0.0
 10
386.17138671875
 20
102.220703125
 30
0.0
 10
386.17138671875
 20
102.220703125
 30
0.0
 10
386.10888671875
 20
102.220703125
 30
0.0
 10
386.04638671875
 20
102.22265625
 30
0.0
 10
385.98388671875
 20
102.224609375
 30
0.0
 10
370.63671875
 20
103.00390625
 30
0.0
 10
358.646484375
 20
104.548828125
 30
0.0
 10
350.345703125
 20
106.81640625
 30
0.0
 10
342.22314453125
 20
109.029296875
 30
0.0
 10
335.6728515625
 20
111.033203125
 30
0.0
 10
330.87841796875
 20
112.76953125
 30
0.0
 10
329.263671875
 20
113.353515625
 30
0.0
 10
328.18701171875
 20
114.884765625
 30
0.0
 10
328.1826171875
 20
116.6015625
 30
0.0
 10
328.1826171875
 20
116.6015625
 30
0.0
 10
328.0576171875
 20
161.93017578125
 30
0.0
 10
328.0576171875
 20
161.93017578125
 30
0.0
 10
328.0576171875
 20
161.93408203125
 30
0.0
 10
328.0576171875
 20
161.93798828125
 30
0.0
 10
328.0576171875
 20
161.94189453125
 30
0.0
  0
SPLINE
  5
53
330
4E
100
AcDbEntity
  8
LAYER_2
100
AcDbSpline
210
0.0
220
0.0
230
1.0
 70
    11
 71
     3
 72
   155
 73
   151
 74
     0
 42
0.0000000001
 43
0.0000000001
 40
0.0
 40
0.0
 40
0.0
 40
0.0
 40
1.0
 40
1.0
 40
1.0
 40
2.0
 40
2.0
 40
2.0
 40
3.0
 40
3.0
 40
3.0
 40
4.0
 40
4.0
 40
4.0
 40
5.0
 40
5.0
 40
5.0
 40
6.0
 40
6.0
 40
6.0
 40
7.0
 40
7.0
 40
7.0
 40
8.0
 40
8.0
 40
8.0
 40
9.0
 40
9.0
 40
9.0
 40
10.0
 40
10.0
 40
10.0
 40
11.0
 40
11.0
 40
11.0
 40
12.0
 40
12.0
 40
12.0
 40
13.0
 40
13.0
 40
13.0
 40
14.0
 40
14.0
 40
14.0
 40
15.0
 40
15.0
 40
15.0
 40
16.0
 40
16.0
 40
16.0
 40
17.0
 40
17.0
 40
17.0
 40
18.0
 40
18.0
 40
18.0
 40
19.0
 40
19.0
 40
19.0
 40
20.0
 40
20.0
 40
20.0
 40
21.0
 40
21.0
 40
21.0
 40
22.0
 40
22.0
 40
22.0
 40
23.0
 40
23.0
 40
23.0
 40
24.0
 40
24.0
 40
24.0
 40
25.0
 40
25.0
 40
25.0
 40
26.0
 40
26.0
 40
26.0
 40
27.0
 40
27.0
 40
27.0
 40
28.0
 40
28.0
 40
28.0
 40
29.0
 40
29.0
 40
29.0
 40
30.0
 40
30.0
 40
30.0
 40
31.0
 40
31.0
 40
31.0
 40
32.0
 40
32.0
 40
32.0
 40
33.0
 40
33.0
 40
33.0
 40
34.0
 40
34.0
 40
34.0
 40
35.0
 40
35.0
 40
35.0
 40
36.0
 40
36.0
 40
36.0
 40
37.0
 40
37.0
 40
37.0
 40
38.0
 40
38.0
 40
38.0
 40
39.0
 40
39.0
 40
39.0
 40
40.0
 40
40.0
 40
40.0
 40
41.0
 40
41.0
 40
41.0
 40
42.0
 40
42.0
 40
42.0
 40
43.0
 40
43.0
 40
43.0
 40
44.0
 40
44.0
 40
44.0
 40
45.0
 40
45.0
 40
45.0
 40
46.0
 40
46.0
 40
46.0
 40
47.0
 40
47.0
 40
47.0
 40
48.0
 40
48.0
 40
48.0
 40
49.0
 40
49.0
 40
49.0
 40
50.0
 40
50.0
 40
50.0
 40
50.0
 10
383.81884765625
 20
184.28564453125
 30
0.0
 10
372.0400390625
 20
171.93212890625
 30
0.0
 10
356.0595703125
 20
163.32763671875
 30
0.0
 10
336.2421875
 20
158.66455078125
 30
0.0
 10
336.2421875
 20
158.66455078125
 30
0.0
 10
336.349609375
 20
119.517578125
 30
0.0
 10
336.349609375
 20
119.517578125
 30
0.0
 10
340.61669921875
 20
118.080078125
 30
0.0
 10
346.03125
 20
116.46484375
 30
0.0
 10
352.49755859375
 20
114.703125
 30
0.0
 10
360.21630859375
 20
112.595703125
 30
0.0
 10
371.5908203125
 20
111.146484375
 30
0.0
 10
386.30517578125
 20
110.39453125
 30
0.0
 10
386.30517578125
 20
110.39453125
 30
0.0
 10
392.5625
 20
110.36328125
 30
0.0
 10
392.5625
 20
110.36328125
 30
0.0
 10
392.68359375
 20
110.36328125
 30
0.0
 10
392.9853515625
 20
110.369140625
 30
0.0
 10
393.5859375
 20
110.451171875
 30
0.0
 10
394.4775390625
 20
110.572265625
 30
0.0
 10
395.2890625
 20
110.79296875
 30
0.0
 10
395.9970703125
 20
111.10546875
 30
0.0
 10
397.919921875
 20
111.94921875
 30
0.0
 10
398.666015625
 20
113.14453125
 30
0.0
 10
398.666015625
 20
115.3671875
 30
0.0
 10
398.666015625
 20
115.8515625
 30
0.0
 10
398.66796875
 20
116.3125
 30
0.0
 10
398.671875
 20
116.748046875
 30
0.0
 10
398.4033203125
 20
116.724609375
 30
0.0
 10
398.1484375
 20
116.708984375
 30
0.0
 10
397.90625
 20
116.701171875
 30
0.0
 10
397.0166015625
 20
116.671875
 30
0.0
 10
396.18359375
 20
116.927734375
 30
0.0
 10
395.4970703125
 20
117.388671875
 30
0.0
 10
395.4970703125
 20
117.388671875
 30
0.0
 10
391.35595703125
 20
117.3984375
 30
0.0
 10
391.35595703125
 20
117.3984375
 30
0.0
 10
390.6953125
 20
116.958984375
 30
0.0
 10
389.89990234375
 20
116.70703125
 30
0.0
 10
389.04736328125
 20
116.716796875
 30
0.0
 10
389.04736328125
 20
116.716796875
 30
0.0
 10
385.99609375
 20
116.75390625
 30
0.0
 10
385.99609375
 20
116.75390625
 30
0.0
 10
383.755859375
 20
116.783203125
 30
0.0
 10
381.95849609375
 20
118.607421875
 30
0.0
 10
381.95849609375
 20
120.841796875
 30
0.0
 10
381.95849609375
 20
120.857421875
 30
0.0
 10
381.95849609375
 20
120.875
 30
0.0
 10
381.95849609375
 20
120.892578125
 30
0.0
 10
381.98583984375
 20
123.150390625
 30
0.0
 10
383.83837890625
 20
124.95703125
 30
0.0
 10
386.095703125
 20
124.9296875
 30
0.0
 10
386.095703125
 20
124.9296875
 30
0.0
 10
386.130859375
 20
124.9296875
 30
0.0
 10
386.130859375
 20
124.9296875
 30
0.0
 10
386.75048828125
 20
125.3203125
 30
0.0
 10
387.482421875
 20
125.548828125
 30
0.0
 10
388.26953125
 20
125.556640625
 30
0.0
 10
388.26953125
 20
125.556640625
 30
0.0
 10
390.20556640625
 20
125.576171875
 30
0.0
 10
390.20556640625
 20
125.576171875
 30
0.0
 10
390.2216796875
 20
125.576171875
 30
0.0
 10
390.23779296875
 20
125.576171875
 30
0.0
 10
390.25390625
 20
125.576171875
 30
0.0
 10
390.25390625
 20
125.576171875
 30
0.0
 10
400.8212890625
 20
125.556640625
 30
0.0
 10
400.8212890625
 20
125.556640625
 30
0.0
 10
400.8671875
 20
125.576171875
 30
0.0
 10
400.912109375
 20
125.595703125
 30
0.0
 10
400.95703125
 20
125.615234375
 30
0.0
 10
402.8798828125
 20
126.458984375
 30
0.0
 10
403.6259765625
 20
127.65234375
 30
0.0
 10
403.6259765625
 20
129.876953125
 30
0.0
 10
403.6259765625
 20
130.60546875
 30
0.0
 10
403.630859375
 20
131.275390625
 30
0.0
 10
403.638671875
 20
131.890625
 30
0.0
 10
403.638671875
 20
131.890625
 30
0.0
 10
402.623046875
 20
131.890625
 30
0.0
 10
402.623046875
 20
131.890625
 30
0.0
 10
402.611328125
 20
131.890625
 30
0.0
 10
402.599609375
 20
131.890625
 30
0.0
 10
402.587890625
 20
131.890625
 30
0.0
 10
402.587890625
 20
131.890625
 30
0.0
 10
393.2685546875
 20
131.890625
 30
0.0
 10
393.2685546875
 20
131.890625
 30
0.0
 10
391.01123046875
 20
131.890625
 30
0.0
 10
389.18115234375
 20
133.720703125
 30
0.0
 10
389.18115234375
 20
135.978515625
 30
0.0
 10
389.18115234375
 20
138.236328125
 30
0.0
 10
391.01123046875
 20
140.06640625
 30
0.0
 10
393.2685546875
 20
140.06640625
 30
0.0
 10
393.2685546875
 20
140.06640625
 30
0.0
 10
402.5283203125
 20
140.06640625
 30
0.0
 10
402.5283203125
 20
140.06640625
 30
0.0
 10
402.6923828125
 20
140.07421875
 30
0.0
 10
402.962890625
 20
140.095703125
 30
0.0
 10
403.376953125
 20
140.15234375
 30
0.0
 10
404.275390625
 20
140.275390625
 30
0.0
 10
405.087890625
 20
140.49609375
 30
0.0
 10
405.794921875
 20
140.80859375
 30
0.0
 10
407.7177734375
 20
141.65234375
 30
0.0
 10
408.4638671875
 20
142.845703125
 30
0.0
 10
408.4638671875
 20
145.0703125
 30
0.0
 10
408.4638671875
 20
145.796875
 30
0.0
 10
408.46875
 20
146.466796875
 30
0.0
 10
408.4775390625
 20
147.08349609375
 30
0.0
 10
408.4775390625
 20
147.08349609375
 30
0.0
 10
398.1064453125
 20
147.08349609375
 30
0.0
 10
398.1064453125
 20
147.08349609375
 30
0.0
 10
395.8486328125
 20
147.08349609375
 30
0.0
 10
394.0185546875
 20
148.91357421875
 30
0.0
 10
394.0185546875
 20
151.17138671875
 30
0.0
 10
394.0185546875
 20
153.42919921875
 30
0.0
 10
395.8486328125
 20
155.25927734375
 30
0.0
 10
398.1064453125
 20
155.25927734375
 30
0.0
 10
398.1064453125
 20
155.25927734375
 30
0.0
 10
410.064453125
 20
155.25927734375
 30
0.0
 10
410.064453125
 20
155.25927734375
 30
0.0
 10
410.4189453125
 20
155.35888671875
 30
0.0
 10
410.79296875
 20
155.41259765625
 30
0.0
 10
411.1787109375
 20
155.41259765625
 30
0.0
 10
411.193359375
 20
155.41259765625
 30
0.0
 10
411.208984375
 20
155.41259765625
 30
0.0
 10
411.224609375
 20
155.41259765625
 30
0.0
 10
411.224609375
 20
155.41259765625
 30
0.0
 10
442.7216796875
 20
155.06103515625
 30
0.0
 10
442.7216796875
 20
155.06103515625
 30
0.0
 10
443.9482421875
 20
155.09912109375
 30
0.0
 10
446.029296875
 20
155.51416015625
 30
0.0
 10
446.9775390625
 20
156.52783203125
 30
0.0
 10
447.2666015625
 20
156.83740234375
 30
0.0
 10
447.6455078125
 20
157.39892578125
 30
0.0
 10
447.5859375
 20
158.68408203125
 30
0.0
 10
447.4287109375
 20
162.14697265625
 30
0.0
 10
445.1650390625
 20
162.81298828125
 30
0.0
 10
443.796875
 20
162.89599609375
 30
0.0
 10
443.796875
 20
162.89599609375
 30
0.0
 10
382.92626953125
 20
163.20849609375
 30
0.0
 10
382.92626953125
 20
163.20849609375
 30
0.0
 10
381.19775390625
 20
163.21728515625
 30
0.0
 10
379.662109375
 20
164.31201171875
 30
0.0
 10
379.08984375
 20
165.94287109375
 30
0.0
 10
378.51806640625
 20
167.57373046875
 30
0.0
 10
379.033203125
 20
169.38916015625
 30
0.0
 10
380.3779296875
 20
170.47509765625
 30
0.0
 10
389.80712890625
 20
178.09619140625
 30
0.0
 10
389.21240234375
 20
181.14013671875
 30
0.0
 10
389.181640625
 20
181.26513671875
 30
0.0
 10
389.02734375
 20
181.91357421875
 30
0.0
 10
387.69189453125
 20
183.17919921875
 30
0.0
 10
383.81884765625
 20
184.28564453125
 30
0.0
  0
HATCH
  5
54
330
4E
100
AcDbEntity
  8
LAYER_2
 62
     7
100
AcDbHatch
 10
0.0
 20
0.0
 30
0.0
210
0.0
220
0.0
230
1.0
  2
SOLID
 70
     1
 71
     0
 91
        2
 92
        1
 93
        1
 72
     4
 94
        3
 73
     0
 74
     1
 95
       95
 96
       91
 40
0.0
 40
0.0
 40
0.0
 40
0.0
 40
1.0
 40
1.0
 40
1.0
 40
2.0
 40
2.0
 40
2.0
 40
3.0
 40
3.0
 40
3.0
 40
4.0
 40
4.0
 40
4.0
 40
5.0
 40
5.0
 40
5.0
 40
6.0
 40
6.0
 40
6.0
 40
7.0
 40
7.0
 40
7.0
 40
8.0
 40
8.0
 40
8.0
 40
9.0
 40
9.0
 40
9.0
 40
10.0
 40
10.0
 40
10.0
 40
11.0
 40
11.0
 40
11.0
 40
12.0
 40
12.0
 40
12.0
 40
13.0
 40
13.0
 40
13.0
 40
14.0
 40
14.0
 40
14.0
 40
15.0
 40
15.0
 40
15.0
 40
16.0
 40
16.0
 40
16.0
 40
17.0
 40
17.0
 40
17.0
 40
18.0
 40
18.0
 40
18.0
 40
19.0
 40
19.0
 40
19.0
 40
20.0
 40
20.0
 40
20.0
 40
21.0
 40
21.0
 40
21.0
 40
22.0
 40
22.0
 40
22.0
 40
23.0
 40
23.0
 40
23.0
 40
24.0
 40
24.0
 40
24.0
 40
25.0
 40
25.0
 40
25.0
 40
26.0
 40
26.0
 40
26.0
 40
27.0
 40
27.0
 40
27.0
 40
28.0
 40
28.0
 40
28.0
 40
29.0
 40
29.0
 40
29.0
 40
30.0
 40
30.0
 40
30.0
 40
30.0
 10
328.0576171875
 20
161.94189453125
 10
328.0576171875
 20
163.87548828125
 10
329.41357421875
 20
165.54638671875
 10
331.3076171875
 20
165.94189453125
 10
351.87451171875
 20
170.24658203125
 10
368.0576171875
 20
178.86474609375
 10
379.408203125
 20
191.55810546875
 10
380.3876953125
 20
192.65380859375
 10
381.87939453125
 20
193.13916015625
 10
383.31591796875
 20
192.82958984375
 10
386.31787109375
 20
192.18310546875
 10
395.453125
 20
190.21728515625
 10
397.134765625
 20
183.15966796875
 10
397.9990234375
 20
179.53076171875
 10
396.7001953125
 20
175.67138671875
 10
393.083984375
 20
171.33154296875
 10
393.083984375
 20
171.33154296875
 10
443.9287109375
 20
171.07080078125
 10
443.9287109375
 20
171.07080078125
 10
443.9677734375
 20
171.07080078125
 10
444.0048828125
 20
171.07080078125
 10
444.0439453125
 20
171.06884765625
 10
447.9111328125
 20
170.94091796875
 10
455.333984375
 20
168.26513671875
 10
455.7529296875
 20
159.05517578125
 10
455.8974609375
 20
155.86474609375
 10
454.927734375
 20
153.06005859375
 10
452.9482421875
 20
150.94287109375
 10
449.5517578125
 20
147.31298828125
 10
444.37890625
 20
146.919921875
 10
442.8583984375
 20
146.88671875
 10
442.8251953125
 20
146.884765625
 10
442.7919921875
 20
146.884765625
 10
442.7587890625
 20
146.884765625
 10
442.7568359375
 20
146.884765625
 10
442.7548828125
 20
146.884765625
 10
442.751953125
 20
146.884765625
 10
442.751953125
 20
146.884765625
 10
416.650390625
 20
146.884765625
 10
416.650390625
 20
146.884765625
 10
416.6435546875
 20
146.330078125
 10
416.6396484375
 20
145.724609375
 10
416.6396484375
 20
145.0703125
 10
416.6396484375
 20
140.8046875
 10
414.9892578125
 20
137.318359375
 10
411.9267578125
 20
134.982421875
 10
411.9267578125
 20
134.982421875
 10
411.9267578125
 20
134.931640625
 10
411.9267578125
 20
134.931640625
 10
411.9267578125
 20
134.833984375
 10
411.9228515625
 20
134.734375
 10
411.916015625
 20
134.63671875
 10
411.83984375
 20
133.59765625
 10
411.8017578125
 20
131.99609375
 10
411.8017578125
 20
129.876953125
 10
411.8017578125
 20
125.537109375
 10
410.0927734375
 20
122.00390625
 10
406.9267578125
 20
119.66796875
 10
406.8701171875
 20
118.640625
 10
406.841796875
 20
117.197265625
 10
406.841796875
 20
115.3671875
 10
406.841796875
 20
109.931640625
 10
404.16015625
 20
105.76171875
 10
399.291015625
 20
103.623046875
 10
397.8916015625
 20
103.00390625
 10
396.33984375
 20
102.576171875
 10
394.6884765625
 20
102.349609375
 10
393.84375
 20
102.234375
 10
393.12890625
 20
102.18359375
 10
392.501953125
 20
102.189453125
 10
392.501953125
 20
102.189453125
 10
386.17138671875
 20
102.220703125
 10
386.17138671875
 20
102.220703125
 10
386.10888671875
 20
102.220703125
 10
386.04638671875
 20
102.22265625
 10
385.98388671875
 20
102.224609375
 10
370.63671875
 20
103.00390625
 10
358.646484375
 20
104.548828125
 10
350.345703125
 20
106.81640625
 10
342.22314453125
 20
109.029296875
 10
335.6728515625
 20
111.033203125
 10
330.87841796875
 20
112.76953125
 10
329.263671875
 20
113.353515625
 10
328.18701171875
 20
114.884765625
 10
328.1826171875
 20
116.6015625
 10
328.1826171875
 20
116.6015625
 10
328.0576171875
 20
161.93017578125
 10
328.0576171875
 20
161.93017578125
 10
328.0576171875
 20
161.93408203125
 10
328.0576171875
 20
161.93798828125
 10
328.0576171875
 20
161.94189453125
 97
        0
 92
        1
 93
        1
 72
     4
 94
        3
 73
     0
 74
     1
 95
      155
 96
      151
 40
0.0
 40
0.0
 40
0.0
 40
0.0
 40
1.0
 40
1.0
 40
1.0
 40
2.0
 40
2.0
 40
2.0
 40
3.0
 40
3.0
 40
3.0
 40
4.0
 40
4.0
 40
4.0
 40
5.0
 40
5.0
 40
5.0
 40
6.0
 40
6.0
 40
6.0
 40
7.0
 40
7.0
 40
7.0
 40
8.0
 40
8.0
 40
8.0
 40
9.0
 40
9.0
 40
9.0
 40
10.0
 40
10.0
 40
10.0
 40
11.0
 40
11.0
 40
11.0
 40
12.0
 40
12.0
 40
12.0
 40
13.0
 40
13.0
 40
13.0
 40
14.0
 40
14.0
 40
14.0
 40
15.0
 40
15.0
 40
15.0
 40
16.0
 40
16.0
 40
16.0
 40
17.0
 40
17.0
 40
17.0
 40
18.0
 40
18.0
 40
18.0
 40
19.0
 40
19.0
 40
19.0
 40
20.0
 40
20.0
 40
20.0
 40
21.0
 40
21.0
 40
21.0
 40
22.0
 40
22.0
 40
22.0
 40
23.0
 40
23.0
 40
23.0
 40
24.0
 40
24.0
 40
24.0
 40
25.0
 40
25.0
 40
25.0
 40
26.0
 40
26.0
 40
26.0
 40
27.0
 40
27.0
 40
27.0
 40
28.0
 40
28.0
 40
28.0
 40
29.0
 40
29.0
 40
29.0
 40
30.0
 40
30.0
 40
30.0
 40
31.0
 40
31.0
 40
31.0
 40
32.0
 40
32.0
 40
32.0
 40
33.0
 40
33.0
 40
33.0
 40
34.0
 40
34.0
 40
34.0
 40
35.0
 40
35.0
 40
35.0
 40
36.0
 40
36.0
 40
36.0
 40
37.0
 40
37.0
 40
37.0
 40
38.0
 40
38.0
 40
38.0
 40
39.0
 40
39.0
 40
39.0
 40
40.0
 40
40.0
 40
40.0
 40
41.0
 40
41.0
 40
41.0
 40
42.0
 40
42.0
 40
42.0
 40
43.0
 40
43.0
 40
43.0
 40
44.0
 40
44.0
 40
44.0
 40
45.0
 40
45.0
 40
45.0
 40
46.0
 40
46.0
 40
46.0
 40
47.0
 40
47.0
 40
47.0
 40
48.0
 40
48.0
 40
48.0
 40
49.0
 40
49.0
 40
49.0
 40
50.0
 40
50.0
 40
50.0
 40
50.0
 10
383.81884765625
 20
184.28564453125
 10
372.0400390625
 20
171.93212890625
 10
356.0595703125
 20
163.32763671875
 10
336.2421875
 20
158.66455078125
 10
336.2421875
 20
158.66455078125
 10
336.349609375
 20
119.517578125
 10
336.349609375
 20
119.517578125
 10
340.61669921875
 20
118.080078125
 10
346.03125
 20
116.46484375
 10
352.49755859375
 20
114.703125
 10
360.21630859375
 20
112.595703125
 10
371.5908203125
 20
111.146484375
 10
386.30517578125
 20
110.39453125
 10
386.30517578125
 20
110.39453125
 10
392.5625
 20
110.36328125
 10
392.5625
 20
110.36328125
 10
392.68359375
 20
110.36328125
 10
392.9853515625
 20
110.369140625
 10
393.5859375
 20
110.451171875
 10
394.4775390625
 20
110.572265625
 10
395.2890625
 20
110.79296875
 10
395.9970703125
 20
111.10546875
 10
397.919921875
 20
111.94921875
 10
398.666015625
 20
113.14453125
 10
398.666015625
 20
115.3671875
 10
398.666015625
 20
115.8515625
 10
398.66796875
 20
116.3125
 10
398.671875
 20
116.748046875
 10
398.4033203125
 20
116.724609375
 10
398.1484375
 20
116.708984375
 10
397.90625
 20
116.701171875
 10
397.0166015625
 20
116.671875
 10
396.18359375
 20
116.927734375
 10
395.4970703125
 20
117.388671875
 10
395.4970703125
 20
117.388671875
 10
391.35595703125
 20
117.3984375
 10
391.35595703125
 20
117.3984375
 10
390.6953125
 20
116.958984375
 10
389.89990234375
 20
116.70703125
 10
389.04736328125
 20
116.716796875
 10
389.04736328125
 20
116.716796875
 10
385.99609375
 20
116.75390625
 10
385.99609375
 20
116.75390625
 10
383.755859375
 20
116.783203125
 10
381.95849609375
 20
118.607421875
 10
381.95849609375
 20
120.841796875
 10
381.95849609375
 20
120.857421875
 10
381.95849609375
 20
120.875
 10
381.95849609375
 20
120.892578125
 10
381.98583984375
 20
123.150390625
 10
383.83837890625
 20
124.95703125
 10
386.095703125
 20
124.9296875
 10
386.095703125
 20
124.9296875
 10
386.130859375
 20
124.9296875
 10
386.130859375
 20
124.9296875
 10
386.75048828125
 20
125.3203125
 10
387.482421875
 20
125.548828125
 10
388.26953125
 20
125.556640625
 10
388.26953125
 20
125.556640625
 10
390.20556640625
 20
125.576171875
 10
390.20556640625
 20
125.576171875
 10
390.2216796875
 20
125.576171875
 10
390.23779296875
 20
125.576171875
 10
390.25390625
 20
125.576171875
 10
390.25390625
 20
125.576171875
 10
400.8212890625
 20
125.556640625
 10
400.8212890625
 20
125.556640625
 10
400.8671875
 20
125.576171875
 10
400.912109375
 20
125.595703125
 10
400.95703125
 20
125.615234375
 10
402.8798828125
 20
126.458984375
 10
403.6259765625
 20
127.65234375
 10
403.6259765625
 20
129.876953125
 10
403.6259765625
 20
130.60546875
 10
403.630859375
 20
131.275390625
 10
403.638671875
 20
131.890625
 10
403.638671875
 20
131.890625
 10
402.623046875
 20
131.890625
 10
402.623046875
 20
131.890625
 10
402.611328125
 20
131.890625
 10
402.599609375
 20
131.890625
 10
402.587890625
 20
131.890625
 10
402.587890625
 20
131.890625
 10
393.2685546875
 20
131.890625
 10
393.2685546875
 20
131.890625
 10
391.01123046875
 20
131.890625
 10
389.18115234375
 20
133.720703125
 10
389.18115234375
 20
135.978515625
 10
389.18115234375
 20
138.236328125
 10
391.01123046875
 20
140.06640625
 10
393.2685546875
 20
140.06640625
 10
393.2685546875
 20
140.06640625
 10
402.5283203125
 20
140.06640625
 10
402.5283203125
 20
140.06640625
 10
402.6923828125
 20
140.07421875
 10
402.962890625
 20
140.095703125
 10
403.376953125
 20
140.15234375
 10
404.275390625
 20
140.275390625
 10
405.087890625
 20
140.49609375
 10
405.794921875
 20
140.80859375
 10
407.7177734375
 20
141.65234375
 10
408.4638671875
 20
142.845703125
 10
408.4638671875
 20
145.0703125
 10
408.4638671875
 20
145.796875
 10
408.46875
 20
146.466796875
 10
408.4775390625
 20
147.08349609375
 10
408.4775390625
 20
147.08349609375
 10
398.1064453125
 20
147.08349609375
 10
398.1064453125
 20
147.08349609375
 10
395.8486328125
 20
147.08349609375
 10
394.0185546875
 20
148.91357421875
 10
394.0185546875
 20
151.17138671875
 10
394.0185546875
 20
153.42919921875
 10
395.8486328125
 20
155.25927734375
 10
398.1064453125
 20
155.25927734375
 10
398.1064453125
 20
155.25927734375
 10
410.064453125
 20
155.25927734375
 10
410.064453125
 20
155.25927734375
 10
410.4189453125
 20
155.35888671875
 10
410.79296875
 20
155.41259765625
 10
411.1787109375
 20
155.41259765625
 10
411.193359375
 20
155.41259765625
 10
411.208984375
 20
155.41259765625
 10
411.224609375
 20
155.41259765625
 10
411.224609375
 20
155.41259765625
 10
442.7216796875
 20
155.06103515625
 10
442.7216796875
 20
155.06103515625
 10
443.9482421875
 20
155.09912109375
 10
446.029296875
 20
155.51416015625
 10
446.9775390625
 20
156.52783203125
 10
447.2666015625
 20
156.83740234375
 10
447.6455078125
 20
157.39892578125
 10
447.5859375
 20
158.68408203125
 10
447.4287109375
 20
162.14697265625
 10
445.1650390625
 20
162.81298828125
 10
443.796875
 20
162.89599609375
 10
443.796875
 20
162.89599609375
 10
382.92626953125
 20
163.20849609375
 10
382.92626953125
 20
163.20849609375
 10
381.19775390625
 20
163.21728515625
 10
379.662109375
 20
164.31201171875
 10
379.08984375
 20
165.94287109375
 10
378.51806640625
 20
167.57373046875
 10
379.033203125
 20
169.38916015625
 10
380.3779296875
 20
170.47509765625
 10
389.80712890625
 20
178.09619140625
 10
389.21240234375
 20
181.14013671875
 10
389.181640625
 20
181.26513671875
 10
389.02734375
 20
181.91357421875
 10
387.69189453125
 20
183.17919921875
 10
383.81884765625
 20
184.28564453125
 97
        0
 75
     2
 76
     1
 98
        0
  0
ENDBLK
  5
51
330
4E
100
AcDbEntity
  8
0
100
AcDbBlockEnd
  0
ENDSEC
  0
SECTION
  2
ENTITIES
  0
INSERT
  5
3D
330
1F
100
AcDbEntity
  8
LAYER_2
100
AcDbBlockReference
  2
BLOCK_2
 10
0.0
 20
0.0
 30
0.0
  0
ENDSEC
  0
SECTION
  2
OBJECTS
  0
DICTIONARY
  5
C
330
0
100
AcDbDictionary
  3
ACAD_GROUP
350
D
  3
ACAD_LAYOUT
350
1A
  3
ACAD_MLINESTYLE
350
17
  3
ACAD_PLOTSETTINGS
350
19
  3
ACAD_TABLESTYLE
350
75
  3
ACAD_VISUALSTYLE
350
2A
  3
ACDBHEADERROUNDTRIPXREC
350
55
  0
DICTIONARY
  5
D
102
{ACAD_REACTORS
330
C
102
}
330
C
100
AcDbDictionary
  0
DICTIONARY
  5
1A
102
{ACAD_REACTORS
330
C
102
}
330
C
100
AcDbDictionary
  0
DICTIONARY
  5
17
102
{ACAD_REACTORS
330
C
102
}
330
C
100
AcDbDictionary
  3
STANDARD
350
18
  0
DICTIONARY
  5
19
102
{ACAD_REACTORS
330
C
102
}
330
C
100
AcDbDictionary
  0
DICTIONARY
  5
75
102
{ACAD_REACTORS
330
C
102
}
330
C
100
AcDbDictionary
  0
DICTIONARY
  5
2A
102
{ACAD_REACTORS
330
C
102
}
330
C
100
AcDbDictionary
  3
2DWIREFRAME
350
2F
  3
3DWIREFRAME
350
30
  3
3D_HIDDEN
350
31
  3
BASIC
350
32
  3
BRIGHTEN
350
36
  3
COLORCHANGE
350
3A
  3
CONCEPTUAL
350
34
  3
DIM
350
35
  3
FACEPATTERN
350
39
  3
FLAT
350
2B
  3
FLATWITHEDGES
350
2C
  3
GOURAUD
350
2D
  3
GOURAUDWITHEDGES
350
2E
  3
LINEPATTERN
350
38
  3
REALISTIC
350
33
  3
THICKEN
350
37
  0
DICTIONARY
  5
55
102
{ACAD_REACTORS
330
C
102
}
330
C
100
AcDbDictionary
  3
CEPSNTYPE
350
5E
  3
DIMSTYLEDATA
350
74
  3
FINGERPRINTGUID
350
5F
  3
HYPERLINKBASE
350
58
  3
INSUNITS
350
5D
  3
LAYOUTDICT
350
5A
  3
LWETCUNION
350
5C
  3
PLOTSETDICT
350
5B
  3
PSVPSCALE
350
61
  3
PUCSBASE
350
64
  3
PUCSORGBACK
350
6A
  3
PUCSORGBOTTOM
350
66
  3
PUCSORGFRONT
350
69
  3
PUCSORGLEFT
350
67
  3
PUCSORGRIGHT
350
68
  3
PUCSORGTOP
350
65
  3
PUCSORTHOREF
350
62
  3
PUCSORTHOVIEW
350
63
  3
STYLESHEET
350
59
  3
TSTACKALIGN
350
56
  3
TSTACKSIZE
350
57
  3
UCSBASE
350
6D
  3
UCSORGBACK
350
73
  3
UCSORGBOTTOM
350
6F
  3
UCSORGFRONT
350
72
  3
UCSORGLEFT
350
70
  3
UCSORGRIGHT
350
71
  3
UCSORGTOP
350
6E
  3
UCSORTHOREF
350
6B
  3
UCSORTHOVIEW
350
6C
  3
VERSIONGUID
350
60
  0
MLINESTYLE
  5
18
102
{ACAD_REACTORS
330
17
102
}
330
17
100
AcDbMlineStyle
  2
Standard
 70
     0
  3

 62
   256
 51
90.0
 52
90.0
 71
     2
 49
0.5
 62
   256
  6
BYLAYER
 49
-0.5
 62
   256
  6
BYLAYER
  0
VISUALSTYLE
  5
2F
102
{ACAD_REACTORS
330
2A
102
}
330
2A
100
AcDbVisualStyle
  2
2dWireframe
 70
     4
 71
     0
 72
     2
 73
     0
 90
        0
 40
-0.6
 41
-30.0
 62
     5
 63
     7
 74
     1
 91
        4
 64
     7
 65
   257
 75
     1
175
     1
 42
1.0
 92
        0
 66
   257
 43
1.0
 76
     1
 77
     6
 78
     2
 67
     7
 79
     5
170
     0
171
     0
290
     0
174
     0
 93
        1
 44
0.0
173
     0
291
     0
 45
0.0
1001
ACAD
1000
AcDbSavedByObjectVersion
1070
     0
  0
VISUALSTYLE
  5
30
102
{ACAD_REACTORS
330
2A
102
}
330
2A
100
AcDbVisualStyle
  2
3dWireframe
 70
     5
 71
     0
 72
     2
 73
     0
 90
        0
 40
-0.6
 41
-30.0
 62
     5
 63
     7
 74
     1
 91
        4
 64
     7
 65
   257
 75
     1
175
     1
 42
1.0
 92
        0
 66
   257
 43
1.0
 76
     1
 77
     6
 78
     2
 67
     7
 79
     5
170
     0
171
     0
290
     0
174
     0
 93
        1
 44
0.0
173
     0
291
     0
 45
0.0
1001
ACAD
1000
AcDbSavedByObjectVersion
1070
     0
  0
VISUALSTYLE
  5
31
102
{ACAD_REACTORS
330
2A
102
}
330
2A
100
AcDbVisualStyle
  2
3D Hidden
 70
     6
 71
     1
 72
     2
 73
     2
 90
        0
 40
-0.6
 41
-30.0
 62
     5
 63
     7
 74
     2
 91
        2
 64
     7
 65
   257
 75
     2
175
     1
 42
40.0
 92
        0
 66
   257
 43
1.0
 76
     1
 77
     6
 78
     2
 67
     7
 79
     3
170
     0
171
     0
290
     0
174
     0
 93
        1
 44
0.0
173
     0
291
     0
 45
0.0
1001
ACAD
1000
AcDbSavedByObjectVersion
1070
     0
  0
VISUALSTYLE
  5
32
102
{ACAD_REACTORS
330
2A
102
}
330
2A
100
AcDbVisualStyle
  2
Basic
 70
     7
 71
     1
 72
     0
 73
     1
 90
        0
 40
-0.6
 41
-30.0
 62
     5
 63
     7
 74
     0
 91
        4
 64
     7
 65
   257
 75
     1
175
     1
 42
1.0
 92
        8
 66
     7
 43
1.0
 76
     1
 77
     6
 78
     2
 67
     7
 79
     5
170
     0
171
     0
290
     0
174
     0
 93
        1
 44
0.0
173
     0
291
     1
 45
0.0
1001
ACAD
1000
AcDbSavedByObjectVersion
1070
     0
  0
VISUALSTYLE
  5
36
102
{ACAD_REACTORS
330
2A
102
}
330
2A
100
AcDbVisualStyle
  2
Brighten
 70
    12
 71
     2
 72
     2
 73
     0
 90
        0
 40
-0.6
 41
-30.0
 62
     5
 63
     7
 74
     1
 91
        4
 64
     7
 65
   257
 75
     1
175
     1
 42
1.0
 92
        8
 66
     7
 43
1.0
 76
     1
 77
     6
 78
     2
 67
     7
 79
     5
170
     0
171
     0
290
     0
174
     0
 93
        1
 44
50.0
173
     0
291
     1
 45
0.0
1001
ACAD
1000
AcDbSavedByObjectVersion
1070
     0
  0
VISUALSTYLE
  5
3A
102
{ACAD_REACTORS
330
2A
102
}
330
2A
100
AcDbVisualStyle
  2
ColorChange
 70
    16
 71
     2
 72
     2
 73
     3
 90
        0
 40
-0.6
 41
-30.0
 62
     5
 63
     8
 74
     1
 91
        4
 64
     7
 65
   257
 75
     1
175
     1
 42
1.0
 92
        8
 66
     8
 43
1.0
 76
     1
 77
     6
 78
     2
 67
     7
 79
     5
170
     0
171
     0
290
     0
174
     0
 93
        1
 44
0.0
173
     0
291
     1
 45
0.0
1001
ACAD
1000
AcDbSavedByObjectVersion
1070
     0
  0
VISUALSTYLE
  5
34
102
{ACAD_REACTORS
330
2A
102
}
330
2A
100
AcDbVisualStyle
  2
Conceptual
 70
     9
 71
     3
 72
     2
 73
     0
 90
        0
 40
-0.6
 41
-30.0
 62
     5
 63
     7
 74
     2
 91
        2
 64
     7
 65
   257
 75
     1
175
     1
 42
40.0
 92
        8
 66
     7
 43
1.0
 76
     1
 77
     6
 78
     2
 67
     7
 79
     3
170
     0
171
     0
290
     0
174
     0
 93
        1
 44
0.0
173
     0
291
     0
 45
0.0
1001
ACAD
1000
AcDbSavedByObjectVersion
1070
     0
  0
VISUALSTYLE
  5
35
102
{ACAD_REACTORS
330
2A
102
}
330
2A
100
AcDbVisualStyle
  2
Dim
 70
    11
 71
     2
 72
     2
 73
     0
 90
        0
 40
-0.6
 41
-30.0
 62
     5
 63
     7
 74
     1
 91
        4
 64
     7
 65
   257
 75
     1
175
     1
 42
1.0
 92
        8
 66
     7
 43
1.0
 76
     1
 77
     6
 78
     2
 67
     7
 79
     5
170
     0
171
     0
290
     0
174
     0
 93
        1
 44
-50.0
173
     0
291
     1
 45
0.0
1001
ACAD
1000
AcDbSavedByObjectVersion
1070
     0
  0
VISUALSTYLE
  5
39
102
{ACAD_REACTORS
330
2A
102
}
330
2A
100
AcDbVisualStyle
  2
Facepattern
 70
    15
 71
     2
 72
     2
 73
     0
 90
        0
 40
-0.6
 41
-30.0
 62
     5
 63
     7
 74
     1
 91
        4
 64
     7
 65
   257
 75
     1
175
     1
 42
1.0
 92
        8
 66
     7
 43
1.0
 76
     1
 77
     6
 78
     2
 67
     7
 79
     5
170
     0
171
     0
290
     0
174
     0
 93
        1
 44
0.0
173
     0
291
     1
 45
0.0
1001
ACAD
1000
AcDbSavedByObjectVersion
1070
     0
  0
VISUALSTYLE
  5
2B
102
{ACAD_REACTORS
330
2A
102
}
330
2A
100
AcDbVisualStyle
  2
Flat
 70
     0
 71
     2
 72
     1
 73
     1
 90
        2
 40
-0.6
 41
30.0
 62
     5
 63
     7
 74
     0
 91
        4
 64
     7
 65
   257
 75
     1
175
     1
 42
1.0
 92
        8
 66
     7
 43
1.0
 76
     1
 77
     6
 78
     2
 67
     7
 79
     5
170
     0
171
     0
290
     0
174
     0
 93
       13
 44
0.0
173
     0
291
     1
 45
0.0
1001
ACAD
1000
AcDbSavedByObjectVersion
1070
     0
  0
VISUALSTYLE
  5
2C
102
{ACAD_REACTORS
330
2A
102
}
330
2A
100
AcDbVisualStyle
  2
FlatWithEdges
 70
     1
 71
     2
 72
     1
 73
     1
 90
        2
 40
-0.6
 41
30.0
 62
     5
 63
     7
 74
     1
 91
        4
 64
     7
 65
   257
 75
     1
175
     1
 42
1.0
 92
        0
 66
   257
 43
1.0
 76
     1
 77
     6
 78
     2
 67
     7
 79
     5
170
     0
171
     0
290
     0
174
     0
 93
       13
 44
0.0
173
     0
291
     1
 45
0.0
1001
ACAD
1000
AcDbSavedByObjectVersion
1070
     0
  0
VISUALSTYLE
  5
2D
102
{ACAD_REACTORS
330
2A
102
}
330
2A
100
AcDbVisualStyle
  2
Gouraud
 70
     2
 71
     2
 72
     2
 73
     1
 90
        2
 40
-0.6
 41
30.0
 62
     5
 63
     7
 74
     0
 91
        4
 64
     7
 65
   257
 75
     1
175
     1
 42
1.0
 92
        0
 66
     7
 43
1.0
 76
     1
 77
     6
 78
     2
 67
     7
 79
     5
170
     0
171
     0
290
     0
174
     0
 93
       13
 44
0.0
173
     0
291
     1
 45
0.0
1001
ACAD
1000
AcDbSavedByObjectVersion
1070
     0
  0
VISUALSTYLE
  5
2E
102
{ACAD_REACTORS
330
2A
102
}
330
2A
100
AcDbVisualStyle
  2
GouraudWithEdges
 70
     3
 71
     2
 72
     2
 73
     1
 90
        2
 40
-0.6
 41
30.0
 62
     5
 63
     7
 74
     1
 91
        4
 64
     7
 65
   257
 75
     1
175
     1
 42
1.0
 92
        0
 66
   257
 43
1.0
 76
     1
 77
     6
 78
     2
 67
     7
 79
     5
170
     0
171
     0
290
     0
174
     0
 93
       13
 44
0.0
173
     0
291
     1
 45
0.0
1001
ACAD
1000
AcDbSavedByObjectVersion
1070
     0
  0
VISUALSTYLE
  5
38
102
{ACAD_REACTORS
330
2A
102
}
330
2A
100
AcDbVisualStyle
  2
Linepattern
 70
    14
 71
     2
 72
     2
 73
     0
 90
        0
 40
-0.6
 41
-30.0
 62
     5
 63
     7
 74
     1
 91
        4
 64
     7
 65
   257
 75
     7
175
     7
 42
1.0
 92
        8
 66
     7
 43
1.0
 76
     1
 77
     6
 78
     2
 67
     7
 79
     5
170
     0
171
     0
290
     0
174
     0
 93
        1
 44
0.0
173
     0
291
     1
 45
0.0
1001
ACAD
1000
AcDbSavedByObjectVersion
1070
     0
  0
VISUALSTYLE
  5
33
102
{ACAD_REACTORS
330
2A
102
}
330
2A
100
AcDbVisualStyle
  2
Realistic
 70
     8
 71
     2
 72
     2
 73
     0
 90
        0
 40
-0.6
 41
-30.0
 62
     5
 63
     7
 74
     1
 91
        0
 64
     7
 65
   257
 75
     1
175
     1
 42
1.0
 92
        8
 66
     8
 43
1.0
 76
     1
 77
     6
 78
     2
 67
     7
 79
     5
170
     0
171
     0
290
     0
174
     0
 93
       13
 44
0.0
173
     0
291
     0
 45
0.0
1001
ACAD
1000
AcDbSavedByObjectVersion
1070
     0
  0
VISUALSTYLE
  5
37
102
{ACAD_REACTORS
330
2A
102
}
330
2A
100
AcDbVisualStyle
  2
Thicken
 70
    13
 71
     2
 72
     2
 73
     0
 90
        0
 40
-0.6
 41
-30.0
 62
     5
 63
     7
 74
     1
 91
        4
 64
     7
 65
   257
 75
     1
175
     1
 42
1.0
 92
       12
 66
     7
 43
1.0
 76
     1
 77
     6
 78
     2
 67
     7
 79
     5
170
     0
171
     0
290
     0
174
     0
 93
        1
 44
0.0
173
     0
291
     1
 45
0.0
1001
ACAD
1000
AcDbSavedByObjectVersion
1070
     0
  0
XRECORD
  5
5E
102
{ACAD_REACTORS
330
55
102
}
330
55
100
AcDbXrecord
 90
        0
  0
XRECORD
  5
74
102
{ACAD_REACTORS
330
55
102
}
330
55
100
AcDbXrecord
1000
DSTYLE
1002
{
1070
   340
340
11
1002
}
  0
XRECORD
  5
5F
102
{ACAD_REACTORS
330
55
102
}
330
55
100
AcDbXrecord
  1
{FB0DAF02-AB69-BBF7-79BD-23DC364927A2}
  0
XRECORD
  5
58
102
{ACAD_REACTORS
330
55
102
}
330
55
100
AcDbXrecord
  1

  0
XRECORD
  5
5D
102
{ACAD_REACTORS
330
55
102
}
330
55
100
AcDbXrecord
 90
        1
  0
XRECORD
  5
5A
102
{ACAD_REACTORS
330
55
102
}
330
55
100
AcDbXrecord
340
1A
  0
XRECORD
  5
5C
102
{ACAD_REACTORS
330
55
102
}
330
55
100
AcDbXrecord
 90
    10269
  0
XRECORD
  5
5B
102
{ACAD_REACTORS
330
55
102
}
330
55
100
AcDbXrecord
340
19
  0
XRECORD
  5
61
102
{ACAD_REACTORS
330
55
102
}
330
55
100
AcDbXrecord
 40
0.0
  0
XRECORD
  5
64
102
{ACAD_REACTORS
330
55
102
}
330
55
100
AcDbXrecord
340
0
  0
XRECORD
  5
6A
102
{ACAD_REACTORS
330
55
102
}
330
55
100
AcDbXrecord
 10
0.0
 20
0.0
 30
0.0
  0
XRECORD
  5
66
102
{ACAD_REACTORS
330
55
102
}
330
55
100
AcDbXrecord
 10
0.0
 20
0.0
 30
0.0
  0
XRECORD
  5
69
102
{ACAD_REACTORS
330
55
102
}
330
55
100
AcDbXrecord
 10
0.0
 20
0.0
 30
0.0
  0
XRECORD
  5
67
102
{ACAD_REACTORS
330
55
102
}
330
55
100
AcDbXrecord
 10
0.0
 20
0.0
 30
0.0
  0
XRECORD
  5
68
102
{ACAD_REACTORS
330
55
102
}
330
55
100
AcDbXrecord
 10
0.0
 20
0.0
 30
0.0
  0
XRECORD
  5
65
102
{ACAD_REACTORS
330
55
102
}
330
55
100
AcDbXrecord
 10
0.0
 20
0.0
 30
0.0
  0
XRECORD
  5
62
102
{ACAD_REACTORS
330
55
102
}
330
55
100
AcDbXrecord
340
0
  0
XRECORD
  5
63
102
{ACAD_REACTORS
330
55
102
}
330
55
100
AcDbXrecord
 70
     0
  0
XRECORD
  5
59
102
{ACAD_REACTORS
330
55
102
}
330
55
100
AcDbXrecord
  1

  0
XRECORD
  5
56
102
{ACAD_REACTORS
330
55
102
}
330
55
100
AcDbXrecord
 90
        1
  0
XRECORD
  5
57
102
{ACAD_REACTORS
330
55
102
}
330
55
100
AcDbXrecord
 90
       70
  0
XRECORD
  5
6D
102
{ACAD_REACTORS
330
55
102
}
330
55
100
AcDbXrecord
340
0
  0
XRECORD
  5
73
102
{ACAD_REACTORS
330
55
102
}
330
55
100
AcDbXrecord
 10
0.0
 20
0.0
 30
0.0
  0
XRECORD
  5
6F
102
{ACAD_REACTORS
330
55
102
}
330
55
100
AcDbXrecord
 10
0.0
 20
0.0
 30
0.0
  0
XRECORD
  5
72
102
{ACAD_REACTORS
330
55
102
}
330
55
100
AcDbXrecord
 10
0.0
 20
0.0
 30
0.0
  0
XRECORD
  5
70
102
{ACAD_REACTORS
330
55
102
}
330
55
100
AcDbXrecord
 10
0.0
 20
0.0
 30
0.0
  0
XRECORD
  5
71
102
{ACAD_REACTORS
330
55
102
}
330
55
100
AcDbXrecord
 10
0.0
 20
0.0
 30
0.0
  0
XRECORD
  5
6E
102
{ACAD_REACTORS
330
55
102
}
330
55
100
AcDbXrecord
 10
0.0
 20
0.0
 30
0.0
  0
XRECORD
  5
6B
102
{ACAD_REACTORS
330
55
102
}
330
55
100
AcDbXrecord
340
0
  0
XRECORD
  5
6C
102
{ACAD_REACTORS
330
55
102
}
330
55
100
AcDbXrecord
 70
     0
  0
XRECORD
  5
60
102
{ACAD_REACTORS
330
55
102
}
330
55
100
AcDbXrecord
  1
{FAEB1C32-E019-11D5-929B-00C0DF256EC4}
  0
ENDSEC
  0
EOF
